# xmcd CD database file generated by Grip 3.0.3
# 
# Track frame offsets:
#       150
#       44512
#       87877
#       114490
#       123291
#       153055
#       180848
#       206794
#       230383
# 
# Disc length: 3447 seconds
# 
# Revision: 3
# Processed by: cddbd v1.5PL3 Copyright (c) Steve Scherf et al.
# Submitted via: Grip 3.0.3
# 
DISCID=670d7509
DTITLE=Tri Continental - Live - [CD1/2)
DYEAR=2001
DGENRE=Blues
TTITLE0=Voodoo King
TTITLE1=Grace
TTITLE2=MBO
TTITLE3=Honey Bee
TTITLE4=Rollin' And Tumblin'
TTITLE5=Ole Buffalo
TTITLE6=Worried Man
TTITLE7=Waiting
TTITLE8=Fiderana
EXTD=
EXTT0=
EXTT1=
EXTT2=
EXTT3=
EXTT4=
EXTT5=
EXTT6=
EXTT7=
EXTT8=
PLAYORDER=
